<svg xmlns="http://www.w3.org/2000/svg" height="2048" preserveAspectRatio="none" style="display: block;" version="1.1" viewBox="0 0 2048 2048" width="2048">
<path d="M 0 0 L 2048 0 L 2048 2048 L 0 2048 L 0 0 z" fill="rgb(22,18,22)" transform="translate(0,0)"></path>
<path d="M 1242.82 724.609 C 1263.75 704.213 1290.82 678.737 1312.41 659.196 L 1312.65 1356.13 C 1291.06 1337.41 1267.93 1314.45 1246.94 1294.73 L 1142.12 1197.11 L 816.431 895.415 L 816.567 1208.46 L 880.053 1268 C 883.238 1271.04 885.526 1273.05 888.978 1275.79 C 889.301 1302.57 888.69 1336.9 890.187 1363.03 C 869.162 1341.06 837.404 1312.55 814.377 1292.08 C 814.811 1341.38 814.851 1390.67 814.496 1439.97 C 792.745 1461.62 766.208 1486.33 743.571 1507.06 L 743.304 1223.88 C 727.6 1208.33 706.484 1190.15 689.784 1174.77 L 555.315 1050.93 L 654.719 1051.04 C 669.108 1063.85 683.885 1079.04 697.886 1092.51 C 712.863 1106.72 728.051 1120.7 743.444 1134.46 L 743.736 732.105 C 808.565 790.561 874.79 854.238 938.741 914.016 L 1242.82 1196.93 L 1242.82 724.609 z" fill="rgb(214,168,106)" transform="translate(0,0)"></path>
<path d="M 1102.45 1255.73 C 1106.99 1256.87 1299.79 1436.11 1312.14 1448.6 L 1312.34 1474.76 L 1080.5 1474.65 L 868.473 1474.83 C 893.021 1453.46 919.627 1427.56 943.519 1405.17 L 1102.45 1255.73 z" fill="rgb(109,183,160)" transform="translate(0,0)"></path>
<path d="M 1281.73 519.772 C 1307.51 542.629 1334.3 569.479 1359.56 593.47 L 1493.55 719.949 L 1395.86 720.057 C 1358.39 683.394 1317.99 647.01 1279.78 610.713 C 1277.22 612.013 1251.25 637.259 1247.49 640.825 C 1219.77 667.371 1191.83 693.697 1163.7 719.8 L 1069.24 720.02 C 1092 697.52 1116.3 675.339 1139.58 653.292 L 1281.73 519.772 z" fill="rgb(214,168,106)" transform="translate(0,0)"></path>
<path d="M 880.178 1049.8 L 995.102 1157.59 C 1010.9 1172.33 1036.26 1197.29 1052.44 1209.7 L 890.187 1363.03 C 888.69 1336.9 889.301 1302.57 888.978 1275.79 C 885.526 1273.05 883.238 1271.04 880.053 1268 L 880.178 1049.8 z" fill="rgb(109,183,160)" transform="translate(0,0)"></path>
<metadata><recraft-signature>{"signed_by": "recraft", "signature_b64": "7xqtTdMsfHCvTo+T+u7C00RKKdEanq6JqpLqg2ivgA7SXNOl1PUMvnzGrWJxvtyG5QqhIFuuJyE9wApdmjv2BA==", "signing_algo": "Ed25519", "generation_timestamp": 1782893273, "identifier": "6e04b3e4-1dc9-4730-b9bb-79270dda1005"}</recraft-signature></metadata></svg>