<svg xmlns="http://www.w3.org/2000/svg" height="2048" preserveAspectRatio="none" style="display: block;" version="1.1" viewBox="0 0 2048 2048" width="2048">
<path d="M 0 0 L 2048 0 L 2048 2048 L 0 2048 L 0 0 z" fill="rgb(20,19,20)" transform="translate(0,0)"></path>
<path d="M 1256.02 543.956 C 1278.32 574.774 1300.97 609.272 1322.64 640.819 L 1442.99 814.923 L 1324.97 814.96 L 1325.07 1513.29 L 870.669 1098.12 C 872.443 1143.94 870.956 1199.34 870.932 1245.8 L 871.025 1509.24 L 728.788 1509.18 L 728.969 778.507 C 752.274 798.274 776.308 821.222 799.008 841.976 L 908.084 941.265 L 1187.1 1194.28 L 1187.11 1177.86 L 1187.11 814.951 L 1067.05 815.139 C 1128.14 724.183 1195.33 634.885 1256.02 543.956 z" fill="rgb(20,19,20)" transform="translate(0,0)"></path>
<path d="M 1256.02 543.956 C 1278.32 574.774 1300.97 609.272 1322.64 640.819 L 1442.99 814.923 L 1324.97 814.96 L 1325.07 1513.29 L 870.669 1098.12 L 870.465 1095.16 C 874.251 1092.36 901.299 1088.61 907.482 1087.59 L 1154.99 1313.88 C 1198.95 1354.17 1246.89 1399.24 1291.74 1437.95 L 1291.54 782.193 L 1381.9 782.544 L 1295.97 658.247 C 1282.99 639.531 1269.4 618.908 1256.17 600.633 L 1175.97 716.425 C 1163.24 734.707 1141.32 764.348 1130.59 782.376 L 1220.99 782.139 L 1220.97 1211.72 C 1209.92 1200.69 1197.64 1189.15 1187.11 1177.86 L 1187.11 814.951 L 1067.05 815.139 C 1128.14 724.183 1195.33 634.885 1256.02 543.956 z" fill="rgb(109,183,160)" transform="translate(0,0)"></path>
<path d="M 728.969 778.507 C 752.274 798.274 776.308 821.222 799.008 841.976 L 908.084 941.265 L 1187.1 1194.28 L 1187.11 1177.86 C 1197.64 1189.15 1209.92 1200.69 1220.97 1211.72 L 1221.07 1269.44 L 966.656 1038.63 C 898.552 976.742 829.743 913 761.054 851.948 L 761.134 1475.91 L 835.747 1475.88 L 835.429 1022.22 C 859.643 1043.79 883.662 1065.58 907.482 1087.59 C 901.299 1088.61 874.251 1092.36 870.465 1095.16 L 870.669 1098.12 C 872.443 1143.94 870.956 1199.34 870.932 1245.8 L 871.025 1509.24 L 728.788 1509.18 L 728.969 778.507 z" fill="rgb(214,168,106)" transform="translate(0,0)"></path>
<metadata><recraft-signature>{"signed_by": "recraft", "signature_b64": "oTCa/cwXudVd/vqaH7BRRjgFoXBEJSl2gmGEwR6KT1HGXytvaSfOIsiB3MeUghoTbF6yi0qHMo7p7RSPHsAtAQ==", "signing_algo": "Ed25519", "generation_timestamp": 1782893272, "identifier": "c00502c0-73da-48aa-b35d-3bf6b15e616d"}</recraft-signature></metadata></svg>