<svg xmlns="http://www.w3.org/2000/svg" height="2048" preserveAspectRatio="none" style="display: block;" version="1.1" viewBox="0 0 2048 2048" width="2048">
<path d="M 0 0 L 2048 0 L 2048 2048 L 0 2048 L 0 0 z" fill="rgb(20,17,20)" transform="translate(0,0)"></path>
<path d="M 807.159 817.321 L 958.867 817.169 C 975.4 851.485 993.745 886.2 1010.94 920.281 L 1097.6 1093.15 C 1091.1 1106.88 1084.01 1124.24 1079.74 1138.78 C 1070.02 1163.4 1059.99 1187.89 1049.67 1212.27 C 1044.06 1225.76 1037.38 1243.37 1031.18 1256.17 C 1031.95 1260.37 1032.42 1261.14 1034.22 1265.11 C 1027.81 1280.23 1021.81 1295.53 1016.23 1310.99 C 1001.01 1281.53 987.086 1251.91 972.593 1222.13 C 945.345 1166.54 918.867 1110.56 893.166 1054.23 L 777.861 1337.08 C 761.581 1376.84 745.327 1418.75 728.221 1458.01 L 547.897 1458.02 C 562.725 1424.59 578.197 1384.21 591.894 1349.99 L 656.111 1190.45 L 775.258 895.578 C 785.799 869.344 796.805 843.67 807.159 817.321 z" fill="rgb(109,183,160)" transform="translate(0,0)"></path>
<path d="M 838.287 853.787 L 935.95 853.504 L 1079.74 1138.78 C 1070.02 1163.4 1059.99 1187.89 1049.67 1212.27 C 1044.06 1225.76 1037.38 1243.37 1031.18 1256.17 C 1024.28 1243.84 1015.19 1223.53 1008.93 1210.43 L 967.864 1124.35 L 838.287 853.787 z" fill="rgb(20,17,20)" transform="translate(0,0)"></path>
<path d="M 816.409 893.669 C 821.225 898.488 864.486 994.512 871.587 1009.68 L 782.609 1226.73 C 756.29 1291.68 729.577 1356.47 702.471 1421.1 L 656.75 1421.21 L 602.839 1421.16 C 624.455 1372.66 644.321 1319.97 664.525 1270.51 L 816.409 893.669 z" fill="rgb(20,17,20)" transform="translate(0,0)"></path>
<path d="M 1067.35 853.727 L 1243.61 695.534 C 1281.37 661.485 1324.15 621.396 1362.43 588.791 L 1452.57 767.108 C 1467.1 795.711 1481.51 825.316 1496.44 853.638 C 1454.74 853.911 1413.04 853.951 1371.34 853.76 L 1259.48 1132.16 L 1209.99 1255.34 C 1201.62 1276.01 1192.18 1301.02 1183.13 1320.96 L 1012.39 1320.95 L 1016.23 1310.99 C 1021.81 1295.53 1027.81 1280.23 1034.22 1265.11 C 1032.42 1261.14 1031.95 1260.37 1031.18 1256.17 C 1037.38 1243.37 1044.06 1225.76 1049.67 1212.27 C 1059.99 1187.89 1070.02 1163.4 1079.74 1138.78 C 1084.01 1124.24 1091.1 1106.88 1097.6 1093.15 C 1127.63 1024.15 1154.44 952.93 1183.23 883.337 C 1187.11 873.949 1191.04 863.412 1194.24 853.808 L 1067.35 853.727 z" fill="rgb(214,168,106)" transform="translate(0,0)"></path>
<path d="M 1350.52 648.852 L 1436.2 817.184 L 1345.29 817.183 L 1227.88 1109.26 C 1210.15 1153.08 1191.22 1204.22 1172.23 1246.73 C 1170.09 1252.16 1158.68 1280.59 1156.22 1283.68 C 1126.86 1282.46 1091.3 1283.61 1061.46 1283.51 C 1075.21 1250.99 1089.09 1216.62 1102.41 1183.79 L 1118.36 1143.34 C 1129.77 1114.98 1141.39 1086.71 1153.21 1058.52 L 1252.95 817.55 C 1222.57 817.195 1192.18 817.102 1161.8 817.273 C 1224.39 760.776 1287.3 704.635 1350.52 648.852 z" fill="rgb(20,17,20)" transform="translate(0,0)"></path>
<path d="M 1102.41 1183.79 C 1114.04 1204.47 1124.79 1226.55 1136.28 1247.42 C 1142.64 1258.98 1148.88 1272.86 1156.22 1283.68 C 1126.86 1282.46 1091.3 1283.61 1061.46 1283.51 C 1075.21 1250.99 1089.09 1216.62 1102.41 1183.79 z" fill="rgb(20,17,20)" transform="translate(0,0)"></path>
<path d="M 1118.36 1143.34 C 1136.07 1177.19 1153.9 1213.55 1172.23 1246.73 C 1170.09 1252.16 1158.68 1280.59 1156.22 1283.68 C 1148.88 1272.86 1142.64 1258.98 1136.28 1247.42 C 1124.79 1226.55 1114.04 1204.47 1102.41 1183.79 L 1118.36 1143.34 z" fill="rgb(109,183,160)" transform="translate(0,0)"></path>
<metadata><recraft-signature>{"signed_by": "recraft", "signature_b64": "lzRKh1mjTALvJlwpW7apHpIy+XLAs1cIb7VlRnQrubxfq7A1SJGpFWRzKE5XpHzYl8teo1kgb+6SC9s4Eq5BAQ==", "signing_algo": "Ed25519", "generation_timestamp": 1782893273, "identifier": "727a8a30-425d-45da-a59c-b663dc71eae7"}</recraft-signature></metadata></svg>